<svg width="2559" height="270" viewBox="0 0 2559 270" fill="#000" xmlns="http://www.w3.org/2000/svg">
<path fill="#000" d="M153.463 259.962C147.165 256.718 140.772 252.233 134.283 246.508C127.985 240.973 122.069 234.676 116.535 227.615C111.192 220.744 106.611 213.588 102.795 206.145L137.432 190.687C142.203 200.42 148.787 209.294 157.184 217.309C165.581 225.515 174.36 232.195 183.52 237.348L153.463 259.962ZM0.599316 103.95C0.599316 82.9574 4.51155 64.7321 12.336 49.274C20.3513 33.625 31.8018 21.5066 46.6874 12.9188C61.5729 4.33098 79.2257 0.0370624 99.6457 0.0370624C120.066 0.0370624 137.718 4.33098 152.604 12.9188C167.49 21.5066 178.94 33.625 186.955 49.274C195.161 64.7321 199.265 82.8619 199.265 103.664C199.265 124.847 195.161 143.263 186.955 158.912C178.94 174.37 167.49 186.488 152.604 195.267C137.718 203.855 120.066 208.149 99.6457 208.149C79.2257 208.149 61.5729 203.855 46.6874 195.267C31.9926 186.488 20.6376 174.275 12.6223 158.626C4.60697 142.977 0.599316 124.751 0.599316 103.95ZM47.2599 103.95C47.2599 124.751 51.5538 141.068 60.1416 152.9C68.9203 164.542 82.0883 170.362 99.6457 170.362C116.821 170.362 129.894 164.542 138.863 152.9C147.833 141.068 152.318 124.751 152.318 103.95C152.318 82.9574 147.833 66.7359 138.863 55.2855C130.085 43.6442 117.012 37.8235 99.6457 37.8235C82.0883 37.8235 68.9203 43.6442 60.1416 55.2855C51.5538 66.7359 47.2599 82.9574 47.2599 103.95ZM291.132 208.149C273.002 208.149 259.548 203.187 250.769 193.263C241.99 183.149 237.601 167.881 237.601 147.462V59.8656H280.827V147.462C280.827 156.622 282.64 163.397 286.266 167.786C290.082 172.175 295.903 174.37 303.727 174.37C312.315 174.37 319.376 171.412 324.911 165.496C330.636 159.389 333.499 151.278 333.499 141.164V59.8656H376.724V205H334.644V177.233H338.651C334.262 186.966 327.964 194.599 319.758 200.134C311.743 205.477 302.201 208.149 291.132 208.149ZM475.891 208.149C463.296 208.149 452.227 205.095 442.685 198.989C433.143 192.882 425.7 184.198 420.356 172.939C415.013 161.679 412.341 148.129 412.341 132.29C412.341 116.641 415.013 103.186 420.356 91.9269C425.7 80.6673 433.143 72.0794 442.685 66.1634C452.227 60.0565 463.296 57.003 475.891 57.003C487.532 57.003 497.933 59.8656 507.094 65.5908C516.445 71.1252 522.552 78.6634 525.414 88.2055H522.265L525.701 59.8656H567.208C566.636 66.1634 566.063 72.5565 565.491 79.0451C565.109 85.3429 564.918 91.5452 564.918 97.6521V205H521.979L521.693 177.805H525.128C522.075 186.966 515.968 194.313 506.807 199.847C497.647 205.382 487.342 208.149 475.891 208.149ZM489.059 175.515C498.983 175.515 506.998 171.985 513.105 164.923C519.212 157.862 522.265 146.984 522.265 132.29C522.265 117.595 519.212 106.812 513.105 99.9422C506.998 93.0719 498.983 89.6368 489.059 89.6368C479.135 89.6368 471.12 93.0719 465.013 99.9422C458.906 106.812 455.853 117.595 455.853 132.29C455.853 146.984 458.811 157.862 464.727 164.923C470.834 171.985 478.945 175.515 489.059 175.515ZM661.055 208.149C648.078 208.149 636.246 206.718 625.559 203.855C614.872 200.992 605.807 196.985 598.364 191.832L609.528 163.206C616.971 167.786 625.177 171.412 634.147 174.084C643.307 176.756 652.372 178.091 661.341 178.091C669.738 178.091 675.941 176.756 679.948 174.084C683.956 171.412 685.96 167.786 685.96 163.206C685.96 159.389 684.624 156.431 681.952 154.332C679.471 152.233 675.559 150.706 670.215 149.752L640.731 144.313C628.326 141.832 618.879 137.252 612.391 130.572C605.902 123.893 602.658 115.209 602.658 104.522C602.658 95.1712 605.139 86.965 610.101 79.9039C615.253 72.652 622.601 67.0222 632.143 63.0145C641.685 59.0068 652.849 57.003 665.635 57.003C676.513 57.003 686.819 58.3389 696.551 61.0107C706.284 63.6824 714.586 67.7855 721.456 73.3199L709.719 101.087C703.803 96.6979 696.933 93.1673 689.109 90.4956C681.475 87.8238 674.128 86.4879 667.067 86.4879C657.906 86.4879 651.322 88.0146 647.315 91.0681C643.307 93.9307 641.303 97.6521 641.303 102.232C641.303 105.667 642.448 108.53 644.738 110.82C647.219 113.11 650.941 114.828 655.902 115.973L685.674 121.412C698.46 123.702 708.193 127.996 714.872 134.294C721.552 140.591 724.891 149.275 724.891 160.343C724.891 170.458 722.22 179.046 716.876 186.107C711.532 193.168 703.994 198.607 694.261 202.424C684.719 206.24 673.651 208.149 661.055 208.149ZM815.323 208.149C802.727 208.149 791.659 205.095 782.117 198.989C772.575 192.882 765.132 184.198 759.788 172.939C754.445 161.679 751.773 148.129 751.773 132.29C751.773 116.641 754.445 103.186 759.788 91.9269C765.132 80.6673 772.575 72.0794 782.117 66.1634C791.659 60.0565 802.727 57.003 815.323 57.003C826.964 57.003 837.365 59.8656 846.525 65.5908C855.877 71.1252 861.984 78.6634 864.846 88.2055H861.697L865.132 59.8656H906.64C906.068 66.1634 905.495 72.5565 904.923 79.0451C904.541 85.3429 904.35 91.5452 904.35 97.6521V205H861.411L861.125 177.805H864.56C861.506 186.966 855.4 194.313 846.239 199.847C837.079 205.382 826.773 208.149 815.323 208.149ZM828.491 175.515C838.415 175.515 846.43 171.985 852.537 164.923C858.644 157.862 861.697 146.984 861.697 132.29C861.697 117.595 858.644 106.812 852.537 99.9422C846.43 93.0719 838.415 89.6368 828.491 89.6368C818.567 89.6368 810.552 93.0719 804.445 99.9422C798.338 106.812 795.285 117.595 795.285 132.29C795.285 146.984 798.243 157.862 804.159 164.923C810.266 171.985 818.376 175.515 828.491 175.515ZM946.67 205V98.2246C946.67 91.9269 946.479 85.5337 946.097 79.0451C945.906 72.5565 945.429 66.1634 944.666 59.8656H986.174L991.04 102.232H984.456C986.365 91.9269 989.418 83.4345 993.617 76.755C998.006 70.0756 1003.35 65.1138 1009.65 61.8695C1016.14 58.6252 1023.48 57.003 1031.69 57.003C1035.32 57.003 1038.18 57.1939 1040.28 57.5755C1042.38 57.7664 1044.48 58.2435 1046.57 59.0068L1046.29 97.0796C1042.28 95.362 1038.85 94.3124 1035.98 93.9307C1033.31 93.3582 1029.88 93.0719 1025.68 93.0719C1017.66 93.0719 1010.98 94.5986 1005.64 97.6521C1000.49 100.706 996.575 105.19 993.903 111.106C991.422 117.022 990.181 124.179 990.181 132.576V205H946.67ZM1162.61 205V3.18593H1256.79C1279.5 3.18593 1296.68 8.72031 1308.32 19.7891C1320.15 30.667 1326.07 45.648 1326.07 64.7321C1326.07 83.6253 1320.15 98.7017 1308.32 109.961C1296.68 121.03 1279.5 126.564 1256.79 126.564H1207.27V205H1162.61ZM1207.27 91.9269H1251.07C1261.76 91.9269 1269.68 89.5414 1274.83 84.7703C1280.17 79.9993 1282.84 73.3199 1282.84 64.7321C1282.84 56.1442 1280.17 49.5602 1274.83 44.9801C1269.68 40.209 1261.76 37.8235 1251.07 37.8235H1207.27V91.9269ZM1410.04 208.149C1397.45 208.149 1386.38 205.095 1376.84 198.989C1367.29 192.882 1359.85 184.198 1354.51 172.939C1349.16 161.679 1346.49 148.129 1346.49 132.29C1346.49 116.641 1349.16 103.186 1354.51 91.9269C1359.85 80.6673 1367.29 72.0794 1376.84 66.1634C1386.38 60.0565 1397.45 57.003 1410.04 57.003C1421.68 57.003 1432.08 59.8656 1441.24 65.5908C1450.6 71.1252 1456.7 78.6634 1459.56 88.2055H1456.42L1459.85 59.8656H1501.36C1500.79 66.1634 1500.21 72.5565 1499.64 79.0451C1499.26 85.3429 1499.07 91.5452 1499.07 97.6521V205H1456.13L1455.84 177.805H1459.28C1456.22 186.966 1450.12 194.313 1440.96 199.847C1431.8 205.382 1421.49 208.149 1410.04 208.149ZM1423.21 175.515C1433.13 175.515 1441.15 171.985 1447.26 164.923C1453.36 157.862 1456.42 146.984 1456.42 132.29C1456.42 117.595 1453.36 106.812 1447.26 99.9422C1441.15 93.0719 1433.13 89.6368 1423.21 89.6368C1413.29 89.6368 1405.27 93.0719 1399.16 99.9422C1393.06 106.812 1390 117.595 1390 132.29C1390 146.984 1392.96 157.862 1398.88 164.923C1404.98 171.985 1413.09 175.515 1423.21 175.515ZM1538.85 269.981L1528.83 236.202C1537.8 234.485 1545.33 232.481 1551.44 230.191C1557.74 227.901 1562.89 224.847 1566.9 221.031C1570.91 217.405 1574.15 212.634 1576.63 206.718L1583.79 189.828L1582.64 206.431L1519.67 59.8656H1565.18L1606.69 164.923H1597.82L1639.9 59.8656H1682.83L1617.28 210.725C1612.51 221.603 1607.36 230.573 1601.82 237.634C1596.48 244.886 1590.66 250.611 1584.36 254.809C1578.06 259.008 1571.1 262.252 1563.46 264.542C1556.02 266.832 1547.82 268.645 1538.85 269.981ZM1704.82 205V97.6521C1704.82 91.5452 1704.63 85.3429 1704.25 79.0451C1703.87 72.5565 1703.29 66.1634 1702.53 59.8656H1744.04L1747.19 86.7742H1743.75C1747.95 77.6138 1754.15 70.3619 1762.36 65.0183C1770.57 59.6748 1780.3 57.003 1791.56 57.003C1802.63 57.003 1811.88 59.6748 1819.33 65.0183C1826.96 70.171 1832.4 78.2818 1835.64 89.3505H1831.06C1835.26 79.4268 1841.94 71.6023 1851.1 65.8771C1860.26 59.961 1870.66 57.003 1882.3 57.003C1898.72 57.003 1910.93 61.8695 1918.94 71.6023C1926.96 81.3352 1930.97 96.6025 1930.97 117.404V205H1887.74V118.835C1887.74 108.721 1886.12 101.469 1882.88 97.0796C1879.63 92.6902 1874.38 90.4956 1867.13 90.4956C1858.54 90.4956 1851.77 93.549 1846.81 99.6559C1841.84 105.763 1839.36 114.16 1839.36 124.847V205H1796.14V118.835C1796.14 108.721 1794.52 101.469 1791.27 97.0796C1788.03 92.6902 1782.78 90.4956 1775.53 90.4956C1766.94 90.4956 1760.16 93.549 1755.2 99.6559C1750.43 105.763 1748.05 114.16 1748.05 124.847V205H1704.82ZM2045.8 208.149C2020.61 208.149 2000.95 201.374 1986.83 187.824C1972.7 174.275 1965.64 155.859 1965.64 132.576C1965.64 117.5 1968.6 104.332 1974.52 93.0719C1980.62 81.8123 1989.02 73.0336 1999.71 66.7359C2010.59 60.2473 2023.28 57.003 2037.78 57.003C2052.09 57.003 2064.02 60.0565 2073.56 66.1634C2083.3 72.2703 2090.55 80.8581 2095.32 91.9269C2100.28 102.805 2102.76 115.496 2102.76 130V140.019H2001.14V118.549H2071.27L2066.41 122.557C2066.41 110.534 2063.93 101.469 2058.96 95.362C2054.19 89.0643 2047.23 85.9154 2038.07 85.9154C2027.95 85.9154 2020.13 89.6368 2014.59 97.0796C2009.25 104.522 2006.58 115.209 2006.58 129.141V133.721C2006.58 147.843 2010.01 158.339 2016.88 165.21C2023.94 172.08 2034.06 175.515 2047.23 175.515C2055.05 175.515 2062.4 174.561 2069.27 172.652C2076.33 170.553 2083.01 167.309 2089.31 162.92L2101.33 191.546C2094.08 196.889 2085.68 200.992 2076.14 203.855C2066.79 206.718 2056.67 208.149 2045.8 208.149ZM2137.34 205V97.6521C2137.34 91.5452 2137.15 85.3429 2136.77 79.0451C2136.39 72.5565 2135.82 66.1634 2135.05 59.8656H2176.56L2179.71 86.7742H2176.28C2181.05 77.2321 2187.82 69.8848 2196.6 64.7321C2205.38 59.5794 2215.59 57.003 2227.23 57.003C2244.21 57.003 2256.91 61.9649 2265.3 71.8886C2273.89 81.6215 2278.18 96.7933 2278.18 117.404V205H2234.96V119.408C2234.96 108.912 2233.05 101.469 2229.23 97.0796C2225.42 92.6902 2219.69 90.4956 2212.06 90.4956C2202.52 90.4956 2194.88 93.549 2189.16 99.6559C2183.43 105.572 2180.57 113.587 2180.57 123.702V205H2137.34ZM2387.9 208.149C2369.01 208.149 2354.79 203.473 2345.25 194.122C2335.71 184.58 2330.94 170.362 2330.94 151.469V92.2131H2303.46V59.8656H2330.94V24.3692L2374.16 13.7776V59.8656H2411.38V92.2131H2374.16V149.179C2374.16 158.339 2376.07 164.637 2379.89 168.072C2383.7 171.507 2388.57 173.225 2394.49 173.225C2398.11 173.225 2401.07 173.034 2403.36 172.652C2405.84 172.08 2408.42 171.317 2411.09 170.362V203.855C2407.46 205.382 2403.65 206.431 2399.64 207.004C2395.63 207.767 2391.72 208.149 2387.9 208.149ZM2494.24 208.149C2481.27 208.149 2469.43 206.718 2458.75 203.855C2448.06 200.992 2439 196.985 2431.55 191.832L2442.72 163.206C2450.16 167.786 2458.37 171.412 2467.34 174.084C2476.5 176.756 2485.56 178.091 2494.53 178.091C2502.93 178.091 2509.13 176.756 2513.14 174.084C2517.14 171.412 2519.15 167.786 2519.15 163.206C2519.15 159.389 2517.81 156.431 2515.14 154.332C2512.66 152.233 2508.75 150.706 2503.4 149.752L2473.92 144.313C2461.51 141.832 2452.07 137.252 2445.58 130.572C2439.09 123.893 2435.85 115.209 2435.85 104.522C2435.85 95.1712 2438.33 86.965 2443.29 79.9039C2448.44 72.652 2455.79 67.0222 2465.33 63.0145C2474.87 59.0068 2486.04 57.003 2498.82 57.003C2509.7 57.003 2520.01 58.3389 2529.74 61.0107C2539.47 63.6824 2547.77 67.7855 2554.65 73.3199L2542.91 101.087C2536.99 96.6979 2530.12 93.1673 2522.3 90.4956C2514.66 87.8238 2507.32 86.4879 2500.26 86.4879C2491.1 86.4879 2484.51 88.0146 2480.5 91.0681C2476.5 93.9307 2474.49 97.6521 2474.49 102.232C2474.49 105.667 2475.64 108.53 2477.93 110.82C2480.41 113.11 2484.13 114.828 2489.09 115.973L2518.86 121.412C2531.65 123.702 2541.38 127.996 2548.06 134.294C2554.74 140.591 2558.08 149.275 2558.08 160.343C2558.08 170.458 2555.41 179.046 2550.07 186.107C2544.72 193.168 2537.18 198.607 2527.45 202.424C2517.91 206.24 2506.84 208.149 2494.24 208.149Z"/>
</svg>
