<svg width="2095" height="277" viewBox="0 0 2095 277" fill="none" xmlns="http://www.w3.org/2000/svg">
<path d="M231.755 145.909C231.755 209.372 180.069 260.818 116.31 260.818C52.5524 260.818 0.866211 209.372 0.866211 145.909C0.866211 82.4465 52.5524 31 116.31 31C180.069 31 231.755 82.4465 231.755 145.909ZM47.0439 145.909C47.0439 183.987 78.0556 214.854 116.31 214.854C154.565 214.854 185.577 183.987 185.577 145.909C185.577 107.832 154.565 76.9636 116.31 76.9636C78.0556 76.9636 47.0439 107.832 47.0439 145.909Z" fill="#400050"/>
<ellipse cx="221.721" cy="251.968" rx="24.304" ry="24.1914" fill="#400050"/>
<path d="M464.164 248.953C459.864 246.317 455.494 242.918 451.055 238.756C446.755 234.595 442.662 229.947 438.778 224.815C435.032 219.82 431.772 214.688 428.998 209.416L446.893 202.133C450.5 209.347 455.147 215.867 460.835 221.693C466.661 227.658 472.627 232.722 478.73 236.884L464.164 248.953ZM355.96 135.546C355.96 120.147 358.665 106.83 364.075 95.5931C369.485 84.3565 377.323 75.6862 387.589 69.5824C397.993 63.4785 410.339 60.4266 424.628 60.4266C438.778 60.4266 450.986 63.4785 461.251 69.5824C471.517 75.6862 479.424 84.3565 484.973 95.5931C490.661 106.83 493.505 120.078 493.505 135.338C493.505 150.736 490.661 164.123 484.973 175.498C479.424 186.735 471.447 195.474 461.043 201.717C450.778 207.821 438.639 210.873 424.628 210.873C410.339 210.873 398.062 207.821 387.797 201.717C377.531 195.474 369.624 186.735 364.075 175.498C358.665 164.123 355.96 150.805 355.96 135.546ZM378.641 135.546C378.641 153.302 382.525 167.175 390.294 177.163C398.062 187.151 409.507 192.145 424.628 192.145C439.333 192.145 450.708 187.22 458.754 177.371C466.8 167.383 470.823 153.441 470.823 135.546C470.823 117.65 466.8 103.778 458.754 93.9284C450.847 84.079 439.472 79.1543 424.628 79.1543C409.507 79.1543 398.062 84.079 390.294 93.9284C382.525 103.778 378.641 117.65 378.641 135.546ZM558.489 210.873C545.865 210.873 536.363 207.474 529.981 200.677C523.739 193.74 520.617 183.128 520.617 168.839V104.125H541.634V168.423C541.634 177.163 543.438 183.614 547.044 187.775C550.651 191.937 556.131 194.018 563.483 194.018C571.807 194.018 578.535 191.243 583.668 185.694C588.8 180.145 591.367 172.793 591.367 163.637V104.125H612.383V209H591.991V186.527H594.696C591.783 194.295 587.136 200.33 580.754 204.63C574.373 208.792 566.951 210.873 558.489 210.873ZM683.328 210.873C674.033 210.873 665.918 208.723 658.982 204.422C652.045 200.122 646.635 193.879 642.751 185.694C639.005 177.51 637.133 167.799 637.133 156.562C637.133 145.187 639.005 135.476 642.751 127.43C646.635 119.384 652.045 113.211 658.982 108.911C665.918 104.471 674.033 102.252 683.328 102.252C692.483 102.252 700.46 104.541 707.258 109.119C714.055 113.697 718.564 119.939 720.783 127.846H718.494L720.575 104.125H740.968C740.551 108.425 740.135 112.726 739.719 117.026C739.442 121.188 739.303 125.28 739.303 129.303V209H718.286V185.694H720.575C718.356 193.463 713.778 199.636 706.841 204.214C700.044 208.653 692.206 210.873 683.328 210.873ZM688.53 194.434C697.547 194.434 704.761 191.243 710.171 184.862C715.72 178.481 718.494 169.047 718.494 156.562C718.494 144.077 715.72 134.713 710.171 128.471C704.761 122.089 697.547 118.899 688.53 118.899C679.374 118.899 672.022 122.089 666.473 128.471C661.062 134.713 658.357 144.077 658.357 156.562C658.357 169.047 661.062 178.481 666.473 184.862C671.883 191.243 679.235 194.434 688.53 194.434ZM805.968 210.873C797.229 210.873 789.183 209.763 781.83 207.543C774.478 205.324 768.374 202.203 763.519 198.18L769.97 183.822C775.102 187.706 780.79 190.619 787.033 192.561C793.275 194.503 799.656 195.474 806.176 195.474C813.806 195.474 819.563 194.157 823.448 191.521C827.332 188.746 829.274 185.001 829.274 180.284C829.274 176.677 828.026 173.764 825.528 171.545C823.17 169.325 819.217 167.66 813.668 166.55L793.691 162.597C784.813 160.655 778.085 157.325 773.507 152.609C768.929 147.892 766.64 141.858 766.64 134.505C766.64 128.263 768.305 122.714 771.634 117.858C775.102 113.003 779.958 109.188 786.2 106.414C792.582 103.639 800.003 102.252 808.465 102.252C816.234 102.252 823.448 103.362 830.106 105.581C836.765 107.801 842.314 110.991 846.753 115.153L840.095 129.095C835.794 125.488 830.939 122.714 825.528 120.772C820.118 118.691 814.639 117.65 809.09 117.65C801.321 117.65 795.564 119.107 791.819 122.02C788.073 124.933 786.2 128.748 786.2 133.465C786.2 137.072 787.31 140.054 789.53 142.412C791.888 144.632 795.564 146.366 800.558 147.615L820.534 151.568C829.968 153.51 837.043 156.701 841.759 161.14C846.476 165.579 848.834 171.545 848.834 179.036C848.834 185.556 847.031 191.243 843.424 196.099C839.817 200.954 834.823 204.63 828.442 207.127C822.06 209.624 814.569 210.873 805.968 210.873ZM913.767 210.873C904.472 210.873 896.357 208.723 889.421 204.422C882.484 200.122 877.074 193.879 873.19 185.694C869.444 177.51 867.572 167.799 867.572 156.562C867.572 145.187 869.444 135.476 873.19 127.43C877.074 119.384 882.484 113.211 889.421 108.911C896.357 104.471 904.472 102.252 913.767 102.252C922.922 102.252 930.899 104.541 937.697 109.119C944.494 113.697 949.003 119.939 951.222 127.846H948.933L951.014 104.125H971.406C970.99 108.425 970.574 112.726 970.158 117.026C969.881 121.188 969.742 125.28 969.742 129.303V209H948.725V185.694H951.014C948.794 193.463 944.217 199.636 937.28 204.214C930.483 208.653 922.645 210.873 913.767 210.873ZM918.969 194.434C927.986 194.434 935.2 191.243 940.61 184.862C946.159 178.481 948.933 169.047 948.933 156.562C948.933 144.077 946.159 134.713 940.61 128.471C935.2 122.089 927.986 118.899 918.969 118.899C909.813 118.899 902.461 122.089 896.912 128.471C891.501 134.713 888.796 144.077 888.796 156.562C888.796 169.047 891.501 178.481 896.912 184.862C902.322 191.243 909.674 194.434 918.969 194.434ZM999.992 209V130.135C999.992 125.835 999.854 121.535 999.576 117.234C999.437 112.795 999.16 108.425 998.744 104.125H1019.14L1021.43 131.176H1018.1C1019.48 124.656 1021.84 119.246 1025.17 114.945C1028.5 110.645 1032.52 107.454 1037.24 105.373C1042.1 103.292 1047.16 102.252 1052.43 102.252C1054.65 102.252 1056.52 102.391 1058.05 102.668C1059.57 102.807 1061.1 103.084 1062.63 103.5L1062.42 122.228C1060.06 121.257 1057.98 120.702 1056.18 120.563C1054.51 120.286 1052.43 120.147 1049.93 120.147C1043.83 120.147 1038.63 121.535 1034.33 124.309C1030.03 126.945 1026.77 130.552 1024.55 135.129C1022.33 139.707 1021.22 144.632 1021.22 149.904V209H999.992ZM1136.2 209V62.2994H1198.41C1214.09 62.2994 1226.09 66.1143 1234.41 73.7441C1242.87 81.2352 1247.11 91.6395 1247.11 104.957C1247.11 118.275 1242.87 128.748 1234.41 136.378C1226.09 144.008 1214.09 147.823 1198.41 147.823H1157.84V209H1136.2ZM1157.84 130.552H1196.12C1205.97 130.552 1213.4 128.332 1218.39 123.893C1223.38 119.454 1225.88 113.142 1225.88 104.957C1225.88 96.911 1223.38 90.6684 1218.39 86.2293C1213.4 81.7901 1205.97 79.5705 1196.12 79.5705H1157.84V130.552ZM1306.37 210.873C1297.07 210.873 1288.96 208.723 1282.02 204.422C1275.08 200.122 1269.67 193.879 1265.79 185.694C1262.04 177.51 1260.17 167.799 1260.17 156.562C1260.17 145.187 1262.04 135.476 1265.79 127.43C1269.67 119.384 1275.08 113.211 1282.02 108.911C1288.96 104.471 1297.07 102.252 1306.37 102.252C1315.52 102.252 1323.5 104.541 1330.3 109.119C1337.09 113.697 1341.6 119.939 1343.82 127.846H1341.53L1343.61 104.125H1364.01C1363.59 108.425 1363.17 112.726 1362.76 117.026C1362.48 121.188 1362.34 125.28 1362.34 129.303V209H1341.32V185.694H1343.61C1341.39 193.463 1336.82 199.636 1329.88 204.214C1323.08 208.653 1315.24 210.873 1306.37 210.873ZM1311.57 194.434C1320.59 194.434 1327.8 191.243 1333.21 184.862C1338.76 178.481 1341.53 169.047 1341.53 156.562C1341.53 144.077 1338.76 134.713 1333.21 128.471C1327.8 122.089 1320.59 118.899 1311.57 118.899C1302.41 118.899 1295.06 122.089 1289.51 128.471C1284.1 134.713 1281.4 144.077 1281.4 156.562C1281.4 169.047 1284.1 178.481 1289.51 184.862C1294.92 191.243 1302.27 194.434 1311.57 194.434ZM1388.87 256.236L1383.88 239.172C1390.4 237.785 1395.81 236.121 1400.11 234.178C1404.55 232.236 1408.22 229.67 1411.14 226.479C1414.05 223.427 1416.55 219.474 1418.63 214.618L1423.83 202.341L1423.41 210.873L1377.84 104.125H1400.32L1435.69 191.521H1430.07L1465.45 104.125H1487.09L1439.02 216.491C1435.97 223.427 1432.71 229.254 1429.24 233.97C1425.77 238.687 1422.03 242.502 1418 245.415C1413.98 248.328 1409.54 250.617 1404.69 252.282C1399.83 253.947 1394.56 255.264 1388.87 256.236ZM1503.55 209V129.303C1503.55 125.28 1503.35 121.188 1502.93 117.026C1502.65 112.726 1502.31 108.425 1501.89 104.125H1522.28L1524.15 126.182H1521.66C1524.57 118.552 1529.01 112.656 1534.97 108.494C1541.08 104.333 1548.36 102.252 1556.82 102.252C1565.42 102.252 1572.43 104.333 1577.84 108.494C1583.39 112.517 1587.2 118.76 1589.29 127.222H1585.96C1588.73 119.592 1593.45 113.558 1600.11 109.119C1606.76 104.541 1614.46 102.252 1623.2 102.252C1634.86 102.252 1643.6 105.651 1649.42 112.448C1655.25 119.246 1658.16 129.789 1658.16 144.077V209H1637.15V145.118C1637.15 135.962 1635.55 129.372 1632.36 125.349C1629.31 121.188 1624.31 119.107 1617.38 119.107C1609.33 119.107 1602.95 121.881 1598.23 127.43C1593.52 132.979 1591.16 140.47 1591.16 149.904V209H1570.14V145.118C1570.14 135.962 1568.55 129.372 1565.36 125.349C1562.3 121.188 1557.31 119.107 1550.37 119.107C1542.33 119.107 1536.02 121.881 1531.44 127.43C1526.86 132.979 1524.57 140.47 1524.57 149.904V209H1503.55ZM1736.75 210.873C1719.83 210.873 1706.51 206.087 1696.8 196.515C1687.09 186.943 1682.24 173.695 1682.24 156.77C1682.24 145.811 1684.32 136.239 1688.48 128.055C1692.78 119.87 1698.68 113.558 1706.17 109.119C1713.8 104.541 1722.6 102.252 1732.59 102.252C1742.44 102.252 1750.7 104.333 1757.36 108.494C1764.01 112.656 1769.08 118.552 1772.55 126.182C1776.01 133.673 1777.75 142.551 1777.75 152.817V159.476H1698.68V147.407H1763.39L1759.85 150.112C1759.85 139.707 1757.49 131.661 1752.78 125.974C1748.2 120.147 1741.54 117.234 1732.8 117.234C1723.09 117.234 1715.6 120.633 1710.33 127.43C1705.06 134.089 1702.42 143.314 1702.42 155.106V157.187C1702.42 169.533 1705.4 178.828 1711.37 185.07C1717.47 191.313 1726.07 194.434 1737.17 194.434C1743.27 194.434 1748.96 193.602 1754.23 191.937C1759.64 190.134 1764.78 187.22 1769.63 183.197L1776.5 197.555C1771.64 201.856 1765.75 205.185 1758.81 207.543C1751.88 209.763 1744.52 210.873 1736.75 210.873ZM1801.86 209V129.303C1801.86 125.28 1801.66 121.188 1801.24 117.026C1800.96 112.726 1800.62 108.425 1800.2 104.125H1820.59L1822.47 126.182H1819.97C1823.16 118.413 1828.08 112.517 1834.74 108.494C1841.4 104.333 1849.1 102.252 1857.84 102.252C1870.19 102.252 1879.48 105.651 1885.72 112.448C1892.1 119.246 1895.3 129.789 1895.3 144.077V209H1874.28V145.326C1874.28 136.031 1872.41 129.372 1868.66 125.349C1865.05 121.188 1859.5 119.107 1852.01 119.107C1843.14 119.107 1836.06 121.881 1830.79 127.43C1825.52 132.841 1822.88 140.193 1822.88 149.487V209H1801.86ZM1966 210.873C1954.62 210.873 1946.02 207.821 1940.19 201.717C1934.37 195.474 1931.46 186.18 1931.46 173.833V120.355H1911.06V104.125H1931.46V76.4492L1952.47 70.8309V104.125H1981.6V120.355H1952.47V171.961C1952.47 179.729 1953.86 185.278 1956.63 188.608C1959.41 191.937 1963.43 193.602 1968.7 193.602C1971.34 193.602 1973.63 193.394 1975.57 192.977C1977.65 192.422 1979.52 191.798 1981.19 191.105V208.168C1979.11 209 1976.68 209.624 1973.9 210.04C1971.13 210.595 1968.49 210.873 1966 210.873ZM2036.81 210.873C2028.07 210.873 2020.02 209.763 2012.67 207.543C2005.31 205.324 1999.21 202.203 1994.36 198.18L2000.81 183.822C2005.94 187.706 2011.63 190.619 2017.87 192.561C2024.11 194.503 2030.49 195.474 2037.01 195.474C2044.64 195.474 2050.4 194.157 2054.28 191.521C2058.17 188.746 2060.11 185.001 2060.11 180.284C2060.11 176.677 2058.86 173.764 2056.37 171.545C2054.01 169.325 2050.05 167.66 2044.5 166.55L2024.53 162.597C2015.65 160.655 2008.92 157.325 2004.34 152.609C1999.77 147.892 1997.48 141.858 1997.48 134.505C1997.48 128.263 1999.14 122.714 2002.47 117.858C2005.94 113.003 2010.79 109.188 2017.04 106.414C2023.42 103.639 2030.84 102.252 2039.3 102.252C2047.07 102.252 2054.28 103.362 2060.94 105.581C2067.6 107.801 2073.15 110.991 2077.59 115.153L2070.93 129.095C2066.63 125.488 2061.78 122.714 2056.37 120.772C2050.95 118.691 2045.48 117.65 2039.93 117.65C2032.16 117.65 2026.4 119.107 2022.66 122.02C2018.91 124.933 2017.04 128.748 2017.04 133.465C2017.04 137.072 2018.15 140.054 2020.37 142.412C2022.72 144.632 2026.4 146.366 2031.39 147.615L2051.37 151.568C2060.8 153.51 2067.88 156.701 2072.6 161.14C2077.31 165.579 2079.67 171.545 2079.67 179.036C2079.67 185.556 2077.87 191.243 2074.26 196.099C2070.65 200.954 2065.66 204.63 2059.28 207.127C2052.9 209.624 2045.41 210.873 2036.81 210.873Z" fill="#400050"/>
</svg>
